<mxfile host="app.diagrams.net" modified="2024-03-25T12:46:26.702Z" agent="Mozilla/5.0 (Windows NT 10.0; Win64; x64) AppleWebKit/537.36 (KHTML, like Gecko) Chrome/122.0.0.0 Safari/537.36" etag="srOOZZuERqM5fdXexSFB" version="24.1.0" type="github">
  <diagram name="Página-1" id="QBwxou1Hbs4vOLDv8VIK">
    <mxGraphModel dx="1100" dy="585" grid="1" gridSize="10" guides="1" tooltips="1" connect="1" arrows="1" fold="1" page="1" pageScale="1" pageWidth="827" pageHeight="1169" math="0" shadow="0">
      <root>
        <mxCell id="0" />
        <mxCell id="1" parent="0" />
        <mxCell id="OjDTUiMZT1xuRd1GPBF7-1" value="CLIENTE" style="rounded=1;whiteSpace=wrap;html=1;" vertex="1" parent="1">
          <mxGeometry x="354" y="70" width="120" height="60" as="geometry" />
        </mxCell>
        <mxCell id="OjDTUiMZT1xuRd1GPBF7-42" value="" style="edgeStyle=orthogonalEdgeStyle;rounded=0;orthogonalLoop=1;jettySize=auto;html=1;" edge="1" parent="1">
          <mxGeometry relative="1" as="geometry">
            <mxPoint x="413.74" y="260" as="sourcePoint" />
            <mxPoint x="413.74" y="310" as="targetPoint" />
          </mxGeometry>
        </mxCell>
        <mxCell id="OjDTUiMZT1xuRd1GPBF7-2" value="TIPO DE VEÍCULO" style="rounded=1;whiteSpace=wrap;html=1;" vertex="1" parent="1">
          <mxGeometry x="354" y="190" width="120" height="60" as="geometry" />
        </mxCell>
        <mxCell id="OjDTUiMZT1xuRd1GPBF7-3" value="" style="endArrow=classic;html=1;rounded=0;" edge="1" parent="1">
          <mxGeometry width="50" height="50" relative="1" as="geometry">
            <mxPoint x="414" y="130" as="sourcePoint" />
            <mxPoint x="414" y="180" as="targetPoint" />
          </mxGeometry>
        </mxCell>
        <mxCell id="OjDTUiMZT1xuRd1GPBF7-4" value="CAT. A" style="ellipse;whiteSpace=wrap;html=1;aspect=fixed;" vertex="1" parent="1">
          <mxGeometry x="70" y="310" width="80" height="80" as="geometry" />
        </mxCell>
        <mxCell id="OjDTUiMZT1xuRd1GPBF7-5" value="CAT. B" style="ellipse;whiteSpace=wrap;html=1;aspect=fixed;" vertex="1" parent="1">
          <mxGeometry x="230" y="310" width="80" height="80" as="geometry" />
        </mxCell>
        <mxCell id="OjDTUiMZT1xuRd1GPBF7-6" value="CAT. C" style="ellipse;whiteSpace=wrap;html=1;aspect=fixed;" vertex="1" parent="1">
          <mxGeometry x="520" y="320" width="80" height="80" as="geometry" />
        </mxCell>
        <mxCell id="OjDTUiMZT1xuRd1GPBF7-7" value="MOTOS" style="ellipse;whiteSpace=wrap;html=1;aspect=fixed;" vertex="1" parent="1">
          <mxGeometry x="690" y="310" width="80" height="80" as="geometry" />
        </mxCell>
        <mxCell id="OjDTUiMZT1xuRd1GPBF7-8" value="" style="endArrow=classic;html=1;rounded=0;" edge="1" parent="1">
          <mxGeometry width="50" height="50" relative="1" as="geometry">
            <mxPoint x="500" y="240" as="sourcePoint" />
            <mxPoint x="680" y="320" as="targetPoint" />
          </mxGeometry>
        </mxCell>
        <mxCell id="OjDTUiMZT1xuRd1GPBF7-9" value="" style="endArrow=classic;html=1;rounded=0;" edge="1" parent="1">
          <mxGeometry width="50" height="50" relative="1" as="geometry">
            <mxPoint x="474" y="260" as="sourcePoint" />
            <mxPoint x="534" y="320" as="targetPoint" />
          </mxGeometry>
        </mxCell>
        <mxCell id="OjDTUiMZT1xuRd1GPBF7-11" value="" style="endArrow=classic;html=1;rounded=0;" edge="1" parent="1">
          <mxGeometry width="50" height="50" relative="1" as="geometry">
            <mxPoint x="359" y="258.28" as="sourcePoint" />
            <mxPoint x="307.28" y="310" as="targetPoint" />
          </mxGeometry>
        </mxCell>
        <mxCell id="OjDTUiMZT1xuRd1GPBF7-14" value="" style="endArrow=classic;html=1;rounded=0;" edge="1" parent="1">
          <mxGeometry width="50" height="50" relative="1" as="geometry">
            <mxPoint x="340" y="240" as="sourcePoint" />
            <mxPoint x="160" y="320" as="targetPoint" />
          </mxGeometry>
        </mxCell>
        <mxCell id="OjDTUiMZT1xuRd1GPBF7-15" value="&lt;div&gt;&lt;br&gt;&lt;/div&gt;CHECAGEM&amp;nbsp;&lt;div&gt;DE&lt;/div&gt;&lt;div&gt;CNH&lt;/div&gt;" style="rhombus;whiteSpace=wrap;html=1;" vertex="1" parent="1">
          <mxGeometry x="359" y="490" width="110" height="110" as="geometry" />
        </mxCell>
        <mxCell id="OjDTUiMZT1xuRd1GPBF7-17" value="" style="endArrow=classic;html=1;rounded=0;" edge="1" parent="1">
          <mxGeometry width="50" height="50" relative="1" as="geometry">
            <mxPoint x="154" y="390" as="sourcePoint" />
            <mxPoint x="350" y="530" as="targetPoint" />
          </mxGeometry>
        </mxCell>
        <mxCell id="OjDTUiMZT1xuRd1GPBF7-18" value="" style="endArrow=classic;html=1;rounded=0;" edge="1" parent="1">
          <mxGeometry width="50" height="50" relative="1" as="geometry">
            <mxPoint x="300" y="390" as="sourcePoint" />
            <mxPoint x="380" y="500" as="targetPoint" />
          </mxGeometry>
        </mxCell>
        <mxCell id="OjDTUiMZT1xuRd1GPBF7-19" value="" style="endArrow=classic;html=1;rounded=0;" edge="1" parent="1">
          <mxGeometry width="50" height="50" relative="1" as="geometry">
            <mxPoint x="530" y="400" as="sourcePoint" />
            <mxPoint x="450" y="500" as="targetPoint" />
          </mxGeometry>
        </mxCell>
        <mxCell id="OjDTUiMZT1xuRd1GPBF7-21" value="" style="endArrow=classic;html=1;rounded=0;" edge="1" parent="1">
          <mxGeometry width="50" height="50" relative="1" as="geometry">
            <mxPoint x="680" y="390" as="sourcePoint" />
            <mxPoint x="470" y="530" as="targetPoint" />
          </mxGeometry>
        </mxCell>
        <mxCell id="OjDTUiMZT1xuRd1GPBF7-23" value="VERIFICAR SE POSSUÍ CONTRATOS" style="shape=card;whiteSpace=wrap;html=1;" vertex="1" parent="1">
          <mxGeometry x="374" y="720" width="80" height="100" as="geometry" />
        </mxCell>
        <mxCell id="OjDTUiMZT1xuRd1GPBF7-24" value="" style="endArrow=classic;html=1;rounded=0;" edge="1" parent="1">
          <mxGeometry width="50" height="50" relative="1" as="geometry">
            <mxPoint x="413" y="610" as="sourcePoint" />
            <mxPoint x="413" y="700" as="targetPoint" />
          </mxGeometry>
        </mxCell>
        <mxCell id="OjDTUiMZT1xuRd1GPBF7-25" value="&amp;nbsp;ALUGUEL&amp;nbsp;&lt;div&gt;DE&lt;/div&gt;&lt;div&gt;CARROS&lt;/div&gt;" style="ellipse;shape=cloud;whiteSpace=wrap;html=1;" vertex="1" parent="1">
          <mxGeometry x="70" y="40" width="120" height="90" as="geometry" />
        </mxCell>
        <mxCell id="OjDTUiMZT1xuRd1GPBF7-26" value="" style="endArrow=classic;html=1;rounded=0;" edge="1" parent="1">
          <mxGeometry width="50" height="50" relative="1" as="geometry">
            <mxPoint x="360" y="830" as="sourcePoint" />
            <mxPoint x="290" y="880" as="targetPoint" />
          </mxGeometry>
        </mxCell>
        <mxCell id="OjDTUiMZT1xuRd1GPBF7-27" value="SE SIM, VERIFICAR&lt;div&gt;E FAZER UM NOVO&lt;/div&gt;&lt;div&gt;PARA O ALUGUEL&lt;/div&gt;" style="rounded=1;whiteSpace=wrap;html=1;" vertex="1" parent="1">
          <mxGeometry x="150" y="890" width="130" height="70" as="geometry" />
        </mxCell>
        <mxCell id="OjDTUiMZT1xuRd1GPBF7-28" value="SE NÃO,FAZER O&amp;nbsp; &amp;nbsp;CONTRATO,&lt;span style=&quot;background-color: initial; white-space: pre;&quot;&gt;&#x9;&lt;/span&gt;&lt;span style=&quot;background-color: initial;&quot;&gt; REGISTRAR E ASSINAR.&lt;/span&gt;" style="rounded=1;whiteSpace=wrap;html=1;" vertex="1" parent="1">
          <mxGeometry x="530" y="890" width="130" height="70" as="geometry" />
        </mxCell>
        <mxCell id="OjDTUiMZT1xuRd1GPBF7-29" value="" style="endArrow=classic;html=1;rounded=0;" edge="1" parent="1">
          <mxGeometry width="50" height="50" relative="1" as="geometry">
            <mxPoint x="469" y="830" as="sourcePoint" />
            <mxPoint x="520" y="880" as="targetPoint" />
          </mxGeometry>
        </mxCell>
        <mxCell id="OjDTUiMZT1xuRd1GPBF7-30" value="LIBERAR A CHAVE&amp;nbsp;&lt;div&gt;DO&amp;nbsp;&lt;/div&gt;&lt;div&gt;VEÍCULO&lt;/div&gt;" style="rounded=1;whiteSpace=wrap;html=1;" vertex="1" parent="1">
          <mxGeometry x="340" y="1010" width="134" height="70" as="geometry" />
        </mxCell>
        <mxCell id="OjDTUiMZT1xuRd1GPBF7-31" value="" style="endArrow=classic;html=1;rounded=0;" edge="1" parent="1">
          <mxGeometry width="50" height="50" relative="1" as="geometry">
            <mxPoint x="280" y="970" as="sourcePoint" />
            <mxPoint x="330" y="1010" as="targetPoint" />
          </mxGeometry>
        </mxCell>
        <mxCell id="OjDTUiMZT1xuRd1GPBF7-32" value="" style="endArrow=classic;html=1;rounded=0;" edge="1" parent="1">
          <mxGeometry width="50" height="50" relative="1" as="geometry">
            <mxPoint x="530" y="960" as="sourcePoint" />
            <mxPoint x="480" y="1010" as="targetPoint" />
          </mxGeometry>
        </mxCell>
        <mxCell id="OjDTUiMZT1xuRd1GPBF7-33" value="LEMBRETES" style="swimlane;fontStyle=0;childLayout=stackLayout;horizontal=1;startSize=30;horizontalStack=0;resizeParent=1;resizeParentMax=0;resizeLast=0;collapsible=1;marginBottom=0;whiteSpace=wrap;html=1;strokeColor=#000000;strokeWidth=2;" vertex="1" parent="1">
          <mxGeometry x="30" y="490" width="160" height="320" as="geometry" />
        </mxCell>
        <mxCell id="OjDTUiMZT1xuRd1GPBF7-34" value="EXPLICAR VALORES&lt;div&gt;E PROMOÇÕES&lt;/div&gt;&lt;div&gt;( CASO TENHA&amp;nbsp;&lt;span style=&quot;background-color: initial;&quot;&gt;ALGUMA ).&lt;/span&gt;&lt;/div&gt;" style="text;strokeColor=default;fillColor=none;align=left;verticalAlign=middle;spacingLeft=4;spacingRight=4;overflow=hidden;points=[[0,0.5],[1,0.5]];portConstraint=eastwest;rotatable=0;whiteSpace=wrap;html=1;dashed=1;strokeWidth=1;" vertex="1" parent="OjDTUiMZT1xuRd1GPBF7-33">
          <mxGeometry y="30" width="160" height="80" as="geometry" />
        </mxCell>
        <mxCell id="OjDTUiMZT1xuRd1GPBF7-35" value="ANOTAR A PLACA E TODAS AS INFORMAÇÕES DO VEÍCULO NO CONTRATO." style="text;strokeColor=none;fillColor=none;align=left;verticalAlign=middle;spacingLeft=4;spacingRight=4;overflow=hidden;points=[[0,0.5],[1,0.5]];portConstraint=eastwest;rotatable=0;whiteSpace=wrap;html=1;dashed=1;" vertex="1" parent="OjDTUiMZT1xuRd1GPBF7-33">
          <mxGeometry y="110" width="160" height="90" as="geometry" />
        </mxCell>
        <mxCell id="OjDTUiMZT1xuRd1GPBF7-36" value="ANOTAR A QUANTIDADE DE DIAS, CALCULAR VALOR DA LOCAÇÃO X A QUANTIDADE DE DIAS E ANOTAR EM DUAS VIAS&amp;nbsp;&lt;div&gt;( CLIENTE E EMPRESA ).&lt;/div&gt;" style="text;strokeColor=default;fillColor=none;align=left;verticalAlign=middle;spacingLeft=4;spacingRight=4;overflow=hidden;points=[[0,0.5],[1,0.5]];portConstraint=eastwest;rotatable=0;whiteSpace=wrap;html=1;dashed=1;" vertex="1" parent="OjDTUiMZT1xuRd1GPBF7-33">
          <mxGeometry y="200" width="160" height="120" as="geometry" />
        </mxCell>
        <mxCell id="OjDTUiMZT1xuRd1GPBF7-39" value="CAMINHÃO" style="ellipse;whiteSpace=wrap;html=1;aspect=fixed;" vertex="1" parent="1">
          <mxGeometry x="374" y="320" width="80" height="80" as="geometry" />
        </mxCell>
        <mxCell id="OjDTUiMZT1xuRd1GPBF7-43" value="" style="endArrow=classic;html=1;rounded=0;" edge="1" parent="1">
          <mxGeometry width="50" height="50" relative="1" as="geometry">
            <mxPoint x="413" y="410" as="sourcePoint" />
            <mxPoint x="413" y="480" as="targetPoint" />
          </mxGeometry>
        </mxCell>
      </root>
    </mxGraphModel>
  </diagram>
</mxfile>
